<svg xmlns="http://www.w3.org/2000/svg" viewBox="0 0 1494.64 591.77"><g id="Layer_2" data-name="Layer 2"><g id="Layer_1-2" data-name="Layer 1"><g id="ZVXUhq.tif"><path d="M1406.08,0c5.75,1.92,11.43,4.1,17.26,5.72,43.53,12.07,72.88,52.69,71.24,98.76-1.52,42.63-33.74,80.13-76,88.44-47,9.25-90.69-10.74-108.25-52-23.86-56.11,3-117.53,61.15-135.08,4.84-1.46,9.39-3.86,14.08-5.82Z" fill="#fd6056"/><path d="M296.58,217.34C324,187.18,349.52,159.08,375,131c23.27-25.63,46.29-51.49,69.85-76.85,26.91-29,62.43-37.77,95.6-24.4,33.65,13.57,52.74,43.66,52.75,83.41q0,195.9,0,391.81c0,38.34-21.06,68.74-55.59,81.36-32.78,12-69.58,1.86-92.6-25.81-13.71-16.47-18.84-35.75-18.68-57,.39-53.6.24-107.21.31-160.81,0-4.66,0-9.31,0-14l-5.83-4.22c-3.35,5.15-6.13,10.79-10.14,15.36-16.09,18.31-32.56,36.28-48.89,54.38-36.73,40.71-92.51,41.09-129.78.67-16.85-18.29-33.4-36.86-49.83-55.52-3.78-4.29-6.5-9.51-9.71-14.3l-4.38,3.23c-.39,3.17-1.12,6.35-1.11,9.52.26,54.57.22,109.13,1.05,163.69.68,43.72-28.35,81.21-69.86,88.6C57.29,597.37,16.39,572.86,4.33,533A106.66,106.66,0,0,1,.2,502.78Q-.19,307.62.05,112.43c0-39.49,19.66-69.9,53.2-83.06,33.16-13,69.06-3.81,95.5,25.12Q216.83,129,284.48,203.9C288.06,207.84,291.6,211.81,296.58,217.34Z" fill="#fd6055"/><path d="M1231,308.31C1229.67,469,1103.92,591.23,944.37,591.77,800.7,592.25,659.26,468,663.21,299.25,666.8,146.06,798.9,18.81,959.36,23.13,1107.38,27.11,1232.29,155.74,1231,308.31ZM948.94,180.52c-72.66-.23-128.47,54-128.79,125.12-.32,72.18,55.47,129.32,126.52,129.58,69.9.26,127.68-57.28,127.88-127.33S1018.48,180.74,948.94,180.52Z" fill="#fd6055"/></g></g></g></svg>