<svg xmlns="http://www.w3.org/2000/svg" width="112.076" height="126.261" viewBox="0 0 112.076 126.261">
  <path id="speaker" d="M48.348,43.4A11.837,11.837,0,1,0,36.511,31.565,11.837,11.837,0,0,0,48.348,43.4Zm0,63.131a27.62,27.62,0,1,0-27.62-27.62A27.62,27.62,0,0,0,48.348,106.533Zm0-43.4A15.783,15.783,0,1,1,32.565,78.913,15.783,15.783,0,0,1,48.348,63.131ZM83.859,0H12.837A11.837,11.837,0,0,0,1,11.837V114.424a11.837,11.837,0,0,0,11.837,11.837H83.859c6.537,0,29.217-13.191,29.217-19.728v-86.8C113.076,13.191,90.4,0,83.859,0Zm4.315,114.424H3.433V11.837H88.173Z" transform="translate(-1 0)" fill="#fff" style="mix-blend-mode: exclusion;isolation: isolate"/>
</svg>
