<svg xmlns="http://www.w3.org/2000/svg" width="90.299" height="90.319" viewBox="0 0 90.299 90.319">
  <path id="instagram" d="M45.17,22A23.151,23.151,0,1,0,68.321,45.149,23.115,23.115,0,0,0,45.17,22Zm0,38.2A15.051,15.051,0,1,1,60.221,45.149,15.079,15.079,0,0,1,45.17,60.2Zm29.5-39.15a5.4,5.4,0,1,1-5.4-5.4A5.387,5.387,0,0,1,74.668,21.051ZM90,26.531c-.343-7.234-1.995-13.641-7.294-18.92C77.428,2.332,71.021.68,63.787.317c-7.455-.423-29.8-.423-37.256,0C19.318.66,12.911,2.312,7.611,7.591S.68,19.278.317,26.511c-.423,7.455-.423,29.8,0,37.256C.66,71,2.312,77.408,7.611,82.687s11.687,6.931,18.92,7.294c7.455.423,29.8.423,37.256,0,7.234-.343,13.641-1.995,18.92-7.294C87.987,77.408,89.639,71,90,63.767c.423-7.455.423-29.781,0-37.236ZM80.37,71.766a15.238,15.238,0,0,1-8.584,8.584c-5.944,2.357-20.048,1.813-26.617,1.813s-20.693.524-26.617-1.813a15.238,15.238,0,0,1-8.584-8.584C7.611,65.822,8.155,51.718,8.155,45.149S7.632,24.456,9.969,18.532a15.238,15.238,0,0,1,8.584-8.584C24.5,7.591,38.6,8.135,45.169,8.135s20.693-.524,26.617,1.813a15.238,15.238,0,0,1,8.584,8.584c2.357,5.944,1.813,20.048,1.813,26.617S82.728,65.843,80.37,71.766Z" transform="translate(0 90.319) rotate(-90)" fill="#fff"/>
</svg>
